<svg height='300px' width='300px'  fill="#000000" xmlns="http://www.w3.org/2000/svg" xmlns:xlink="http://www.w3.org/1999/xlink" version="1.1" baseProfile="basic" x="0px" y="0px" viewBox="0 0 100 100" xml:space="preserve"><g><path d="M29,58.7c-0.2-0.1-0.4-0.1-0.6,0c-0.1,0.1-0.3,0.2-0.3,0.4c-0.2,0.4-0.1,0.8,0.2,1c0.1,0,0.2,0.1,0.3,0.1   c0.3,0,0.5-0.2,0.7-0.5c0.1-0.2,0.1-0.5,0.1-0.7C29.3,58.9,29.2,58.7,29,58.7z"></path><path d="M27.2,56.9c-0.3-0.2-0.7,0-0.9,0.4c-0.2,0.4-0.1,0.8,0.2,1c0.1,0,0.2,0.1,0.3,0.1c0.3,0,0.5-0.2,0.7-0.5   C27.6,57.6,27.5,57.1,27.2,56.9z"></path><path d="M29.8,55.5c-0.3-0.2-0.7,0-0.9,0.4c-0.2,0.4-0.1,0.8,0.2,1c0.1,0,0.2,0.1,0.3,0.1c0.3,0,0.5-0.2,0.7-0.5   C30.2,56.1,30.1,55.7,29.8,55.5z"></path><path d="M32,55.8c-0.3-0.2-0.7,0-0.9,0.4c-0.2,0.4-0.1,0.8,0.2,1c0.1,0,0.2,0.1,0.3,0.1c0.3,0,0.5-0.2,0.7-0.5l0,0   C32.4,56.4,32.3,56,32,55.8z"></path><path d="M31.2,53.8c0.1,0,0.2,0.1,0.3,0.1c0.1,0,0.2,0,0.3-0.1c0.1-0.1,0.3-0.2,0.3-0.4v0c0.2-0.4,0.1-0.8-0.2-1   c-0.3-0.2-0.7,0-0.9,0.4c-0.1,0.2-0.1,0.3-0.1,0.5C30.9,53.5,31,53.7,31.2,53.8z"></path><path d="M28.4,54.7c0.1,0,0.2,0.1,0.3,0.1c0.1,0,0.2,0,0.3-0.1c0.1-0.1,0.3-0.2,0.3-0.4c0.1-0.2,0.1-0.3,0.1-0.5   c0-0.2-0.1-0.4-0.3-0.5c-0.2-0.1-0.4-0.1-0.6,0c-0.1,0.1-0.3,0.2-0.3,0.4c-0.1,0.2-0.1,0.3-0.1,0.5C28.1,54.4,28.2,54.6,28.4,54.7z   "></path><path d="M74.4,44.7C74.4,44.7,74.4,44.7,74.4,44.7c-0.1-0.2-0.3-0.3-0.4-0.4l-0.9-0.9c0,0,0,0,0,0c-1.1-0.9-2.1-1.2-3.6-1.2   c-2.6,0.1-4.5,2.9-5.3,4.4c-0.4-0.2-0.9-0.5-1.5-0.7c-1.8-0.7-4-1.1-6.5-1.2L55.8,29c0,0,0,0,0,0c1.3-0.5,3.3-1.6,4.5-3.2   c1.8-2.4,1.3-5.4,1.2-5.5c0-0.1-0.1-0.2-0.2-0.3C61.3,20,61.2,20,61.1,20c-0.1,0-3.6,0.9-5.3,3.3c-1.7,2.3-1.6,5.5-1.6,5.8L54,35   c-0.7-0.8-1.9-2-3.4-2.5c-2.1-0.7-4.1,0.4-4.2,0.4c-0.1,0.1-0.2,0.1-0.2,0.2c0,0.1,0,0.2,0,0.3c0.1,0.1,1.5,2.3,3.6,3   c0.6,0.2,1.2,0.3,1.7,0.3c1,0,1.9-0.2,2.4-0.4l-0.2,8.2c-3,0-5.9,0.5-8,1.3c-3.3,1.2-4,2.8-4,3.9v13L34,57.4   c0.4-1.2,0.6-2.4,0.5-3.5c-0.1-1.5-0.8-2.7-1.9-3.2c-1.1-0.5-2.4-0.4-3.7,0.4c-1.3,0.7-2.4,2-3.2,3.6c-1.6,3.2-1.3,6.8,0.9,7.8   c0.4,0.2,0.9,0.3,1.4,0.3c1.3,0,2.8-0.8,4-2.1l9.8,9.7v4.5c0,1.1,0.7,2.7,4,3.9c2.3,0.8,5.2,1.3,8.4,1.3c3.2,0,6.1-0.5,8.4-1.3   c3.3-1.2,4-2.8,4-3.9v-8.8c0.1-0.6,0.3-1.1,0.5-1.4c0.1-0.3,0.5-0.9,1.1-1.9c2.4-3.9,6.7-11.1,7-13.6   C75.4,47.2,75.1,45.6,74.4,44.7z M50.1,35.7c-1.4-0.4-2.4-1.7-2.9-2.3c0.6-0.2,1.9-0.6,3.2-0.2c1.4,0.4,2.6,1.7,3.1,2.4   C52.8,35.9,51.4,36.2,50.1,35.7z M56.2,49.4c0.9,0,2.1,0.1,3.1,0.5c1,0.4,1.8,1.3,2.3,2c-1.8,0.6-4.3,1-7.4,1   c-2.8,0-5.2-0.4-6.9-0.9c-0.3-0.1-0.5-0.2-0.7-0.2l0,0c0.6-0.9,2.3-2.8,4-3.1c2-0.3,2.9,0.5,3.1,0.6l0,0.9   c-0.3-0.2-0.8-0.3-1.3-0.3c0,0,0,0,0,0c-0.2,0-0.4,0.2-0.4,0.4c0,0.2,0.2,0.4,0.4,0.4c0,0,0,0,0,0c0.8,0,1.4,0.6,1.4,0.6   c0.1,0.1,0.2,0.1,0.3,0.1c0,0,0.1,0,0.1,0c0.1,0,0.2-0.1,0.3-0.2c0,0,0.3-0.4,1.4-0.5c0,0,0,0,0,0c0,0,0,0,0,0c0,0,0,0,0.1,0   c0.1,0,0.1,0,0.2,0c1,0,1.6,0.6,1.6,0.6c0.1,0.2,0.4,0.2,0.5,0c0.2-0.1,0.2-0.4,0-0.5c0,0-0.8-0.9-2.1-0.9L56.2,49.4z M56.4,23.8   c1.3-1.7,3.5-2.6,4.5-2.9c0.1,0.9,0.1,2.8-1.1,4.5c-1.2,1.7-3.7,2.8-4.8,3.2C55,27.5,55.2,25.4,56.4,23.8z M55.1,29.4l0.4,20.5   c-0.4,0.1-0.7,0.2-1,0.3l0.4-20.7L55.1,29.4z M53.8,46.5l0,1.8c-0.6-0.3-1.6-0.7-3.3-0.5c-2.2,0.3-4.1,2.7-4.7,3.6   c-1.3-0.6-2-1.2-2-1.8C43.8,48.4,47.7,46.6,53.8,46.5z M31.7,59.8L31.7,59.8C31.7,59.8,31.7,59.8,31.7,59.8   c-1.5,1.8-3.4,2.6-4.7,1.9c-1.7-0.9-2-3.9-0.5-6.8c0.7-1.4,1.7-2.6,2.9-3.2c0.7-0.4,1.3-0.6,1.9-0.6c0.4,0,0.7,0.1,1,0.2   c0.8,0.4,1.3,1.3,1.4,2.6c0.1,1.3-0.2,2.8-0.9,4.2C32.5,58.8,32.1,59.3,31.7,59.8z M32.5,60c0.4-0.5,0.7-1,1-1.5   c0.1-0.1,0.1-0.3,0.2-0.4L44,65.1c0,0,0,0,0.1,0c0,0,1.8,0.8,1.8,3.6c0,2.4-1.2,2.8-1.6,2.9L32.5,60z M64.6,74.8   c0,1.3-4,3.2-10.4,3.2s-10.4-1.9-10.4-3.2v-2.5l0.1,0.1c0.1,0.1,0.2,0.1,0.3,0.1c0.9,0,2.5-0.8,2.5-3.7c0-3.2-1.9-4.2-2.3-4.3   l-0.6-0.4c0,0,0-0.1,0-0.2V52.7c0.5,0.3,1.2,0.7,2,0.9c2.3,0.8,5.2,1.3,8.4,1.3c3.2,0,6.1-0.5,8.4-1.3c0.8-0.3,1.5-0.6,2-0.9V74.8z    M62.4,51.6c-0.6-0.8-1.6-1.9-2.7-2.4c-0.9-0.4-2.1-0.6-3.4-0.6l0-2c5.2,0.3,8.4,2,8.4,3.1C64.6,50.3,63.8,51,62.4,51.6z    M64.8,46.9c0.7-1.3,2.5-3.9,4.7-4c1.1,0,1.8,0.1,2.4,0.5c-0.3,0-0.5,0-0.8,0c-2.6,0.1-4.5,2.9-5.3,4.4   C65.5,47.5,65.2,47.2,64.8,46.9z M66.3,48.5c0.6-1.2,2.4-4.2,4.8-4.3c0.4,0,0.8,0,1.2,0.1c0.4,0.8,0.6,2,0.4,3.5   c-0.2,2.1-3.9,8.3-6.2,12.1V49.7C66.6,49.3,66.5,48.9,66.3,48.5z M74.4,49.1c-0.2,2.4-4.7,9.7-6.9,13.3c-0.4,0.7-0.8,1.2-1,1.6   v-2.5c2.4-3.9,6.7-11,7-13.5c0.1-1.2,0.1-2.1-0.1-3l0.4,0.2C74.4,46,74.6,47.3,74.4,49.1z"></path></g></svg>