<svg height='300px' width='300px'  fill="#000000" xmlns="http://www.w3.org/2000/svg" xmlns:xlink="http://www.w3.org/1999/xlink" version="1.1" x="0px" y="0px" viewBox="0 0 100 100" enable-background="new 0 0 100 100" xml:space="preserve"><g><path d="M53.3,24.7c0,0-3.2,5.9-6.5,16.6L60,22C60,22,56.5,22.5,53.3,24.7z"></path><path d="M93.2,31.6l-10.5-5.5c0,0,2.2-13.7-7.3-16.5C65.8,6.9,65.1,17,65.1,17l0,0L47.2,43l7.9,6.5l-5.3,7.8h0l-8,0.7   c-0.6-2.5-2.9-3.7-4-4.2c0,0,0,0,0,0l-1,11.3c1.2-0.3,3.7-1.2,4.7-3.6l30.1,1.5l0.1,0.1c1.1,0.9,2.5,1,3.7,0.4   c2.8-1.5,7.9-4.9,12.8-12.2c5-7.2,6.3-13.2,6.7-16.3C95.1,33.6,94.4,32.3,93.2,31.6z M52.3,57.1l4.3-6.3l6.5,5.4L52.3,57.1z    M68.1,18.6c0-8,6.3-6.1,6.3-6.1c5.6,1.8,5.2,9.3,4.9,11.9L68.1,18.6z"></path><path d="M35.5,52.8l-1-0.1c0,0,0,0-0.1,0c-0.4,0-0.8,0.3-0.8,0.8l-1,11.4c0,0.5,0.3,0.9,0.8,0.9l1,0.1c0,0,0,0,0.1,0   c0.4,0,0.8-0.3,0.8-0.8l1-11.4C36.3,53.3,36,52.9,35.5,52.8z"></path><path d="M30.8,55c0.5,0,0.7,0.1,0.7,0.1c0,0,0.1,0,0.1,0c0.4,0,0.7-0.3,0.8-0.7c0.1-0.4-0.2-0.8-0.7-0.9c0,0-0.3-0.1-0.8-0.1   c-0.4,0-0.8,0.3-0.9,0.7C30,54.6,30.4,55,30.8,55z"></path><path d="M7,73.9c-0.4-0.1-0.8,0.2-0.9,0.6c-0.1,0.5-0.2,1.1-0.3,1.7c-0.1,0.4,0.2,0.8,0.7,0.9c0,0,0.1,0,0.1,0   c0.4,0,0.7-0.3,0.8-0.7c0.1-0.6,0.2-1.1,0.3-1.6C7.7,74.4,7.4,74,7,73.9z"></path><path d="M19.1,56.5c-0.2-0.4-0.7-0.5-1.1-0.3c-0.5,0.3-1,0.6-1.5,0.9c-0.4,0.2-0.5,0.7-0.2,1.1c0.2,0.2,0.4,0.4,0.7,0.4   c0.2,0,0.3,0,0.4-0.1c0.4-0.3,0.9-0.6,1.4-0.8C19.2,57.4,19.3,56.9,19.1,56.5z"></path><path d="M5.9,81.1c-0.4,0-0.8,0.3-0.8,0.7C5,82.4,5,83,5,83.5c0,0.4,0.3,0.8,0.8,0.8c0,0,0,0,0,0c0.4,0,0.8-0.3,0.8-0.8   c0-0.6,0-1.1,0.1-1.7C6.7,81.5,6.4,81.1,5.9,81.1z"></path><path d="M9.3,67c-0.4-0.2-0.9,0-1,0.4C8,67.9,7.8,68.4,7.6,69c-0.2,0.4,0.1,0.9,0.5,1c0.1,0,0.2,0,0.3,0c0.3,0,0.6-0.2,0.7-0.5   c0.2-0.5,0.4-1,0.6-1.5C9.9,67.6,9.7,67.1,9.3,67z"></path><path d="M25.1,53.7c-0.6,0.1-1.1,0.2-1.7,0.4c-0.4,0.1-0.7,0.5-0.6,1c0.1,0.4,0.4,0.6,0.8,0.6c0.1,0,0.1,0,0.2,0   c0.5-0.1,1.1-0.2,1.6-0.3c0.4-0.1,0.7-0.5,0.6-0.9C26,53.9,25.6,53.7,25.1,53.7z"></path><path d="M12.4,63.3c0.3-0.4,0.7-0.9,1-1.3c0.3-0.3,0.2-0.8-0.1-1.1c-0.3-0.3-0.8-0.2-1.1,0.1c-0.4,0.4-0.7,0.9-1.1,1.4   c-0.3,0.4-0.2,0.8,0.2,1.1c0.1,0.1,0.3,0.2,0.5,0.2C12,63.6,12.2,63.5,12.4,63.3z"></path><path d="M5.8,88.4c-0.4,0-0.8,0.4-0.8,0.8c0,0.3,0,0.5,0,0.8c0,0.4,0.4,0.8,0.8,0.8c0,0,0,0,0,0c0.4,0,0.8-0.4,0.8-0.8   c0-0.3,0-0.5,0-0.8C6.6,88.7,6.2,88.4,5.8,88.4z"></path><path d="M14,76c-0.4-0.1-0.8,0.2-0.9,0.6c-0.1,0.5-0.2,1-0.3,1.6c-0.1,0.4,0.2,0.8,0.7,0.9c0,0,0.1,0,0.1,0c0.4,0,0.7-0.3,0.8-0.7   c0.1-0.5,0.2-1,0.3-1.5C14.7,76.5,14.4,76.1,14,76z"></path><path d="M13,82.8c-0.4,0-0.8,0.3-0.8,0.7c0,0.5-0.1,1.1-0.1,1.6c0,0.4,0.3,0.8,0.8,0.8c0,0,0,0,0,0c0.4,0,0.8-0.3,0.8-0.8   c0-0.5,0.1-1.1,0.1-1.6C13.7,83.2,13.4,82.8,13,82.8z"></path><path d="M16.1,69.5c-0.4-0.2-0.9,0-1,0.4c-0.2,0.5-0.4,1-0.6,1.5c-0.2,0.4,0.1,0.9,0.5,1c0.1,0,0.2,0,0.3,0c0.3,0,0.6-0.2,0.7-0.5   c0.2-0.5,0.4-1,0.6-1.4C16.7,70.1,16.5,69.6,16.1,69.5z"></path><path d="M31.8,58.5c0,0-0.7-0.1-1.7-0.1c-0.4,0-0.8,0.4-0.8,0.8c0,0.4,0.4,0.8,0.8,0.8c0.9,0,1.4,0,1.4,0c0,0,0.1,0,0.1,0   c0.4,0,0.7-0.3,0.8-0.7C32.5,59,32.2,58.6,31.8,58.5z"></path><path d="M19.9,63.8c-0.3-0.3-0.8-0.3-1.1,0.1c-0.4,0.4-0.7,0.8-1,1.3c-0.3,0.4-0.2,0.8,0.2,1.1c0.1,0.1,0.3,0.2,0.5,0.2   c0.2,0,0.5-0.1,0.6-0.3c0.3-0.4,0.6-0.8,1-1.2C20.3,64.6,20.3,64.1,19.9,63.8z"></path><path d="M24.6,59.7c-0.5,0.2-1,0.5-1.5,0.7c-0.4,0.2-0.5,0.7-0.3,1.1c0.1,0.3,0.4,0.4,0.7,0.4c0.1,0,0.3,0,0.4-0.1   c0.4-0.2,0.9-0.5,1.3-0.7c0.4-0.2,0.6-0.6,0.4-1C25.5,59.7,25,59.5,24.6,59.7z"></path><path d="M20.2,83.3c0.4,0,0.8-0.4,0.8-0.8c0-0.5,0-1,0-1.5c0-0.4-0.3-0.8-0.7-0.8c-0.4,0-0.8,0.3-0.8,0.7c0,0.5,0,1.1,0,1.6   C19.4,83,19.7,83.3,20.2,83.3C20.2,83.3,20.2,83.3,20.2,83.3z"></path><path d="M30.4,63.7c-0.1,0-0.2,0-0.3,0.1l-0.1,0c-0.2,0.1-0.7,0.3-1.4,0.6c-0.4,0.2-0.6,0.7-0.4,1.1c0.1,0.3,0.4,0.5,0.7,0.5   c0.1,0,0.2,0,0.3-0.1c0.6-0.3,1-0.4,1.2-0.5c0.2-0.1,0.7-0.2,0.7-0.8C31.2,64.1,30.8,63.7,30.4,63.7z"></path><path d="M24.2,67.8c-0.4,0.4-0.7,0.8-1,1.3c-0.3,0.4-0.2,0.9,0.2,1.1c0.1,0.1,0.3,0.1,0.5,0.1c0.2,0,0.5-0.1,0.6-0.3   c0.3-0.4,0.6-0.8,0.9-1.2c0.3-0.3,0.3-0.8-0.1-1.1C25,67.4,24.5,67.4,24.2,67.8z"></path><path d="M21.7,73.5c-0.4-0.1-0.9,0.1-1,0.5c-0.2,0.5-0.3,1-0.5,1.6c-0.1,0.4,0.2,0.9,0.6,1c0.1,0,0.1,0,0.2,0   c0.4,0,0.7-0.2,0.8-0.6c0.1-0.5,0.3-1,0.4-1.5C22.3,74.1,22.1,73.6,21.7,73.5z"></path><path d="M21.3,87.7c0-0.4-0.4-0.8-0.9-0.7c-0.4,0-0.7,0.4-0.7,0.9c0.1,0.5,0.1,1.1,0.2,1.6c0.1,0.4,0.4,0.7,0.8,0.7   c0,0,0.1,0,0.1,0c0.4-0.1,0.7-0.5,0.7-0.9C21.4,88.8,21.3,88.2,21.3,87.7z"></path></g></svg>